# Blender 3.3.1
# www.blender.org
mtllib glass-cube.mtl
o back_wall
usemtl Grey
v -2.715011 -2.742686 -2.785599
v 2.780989 -2.742686 -2.785599
v 2.780989 2.745314 -2.789966
v -2.779011 2.745314 -2.789966
vn -0.0000 0.0008 1.0000
vt 0.000000 0.000000
vt 0.000000 0.000000
vt 0.000000 0.000000
vt 0.000000 0.000000
s 0
f 1/1/1 3/3/1 4/4/1
f 1/1/1 2/2/1 3/3/1

o ceiling
usemtl Cyan
v -2.779011 2.749764 2.802032
v -2.779011 2.745314 -2.789968
v 2.780989 2.745314 -2.789968
v 2.780989 2.749764 2.802032
vn -0.0000 -1.0000 0.0008
vt 0.000000 0.000000
vt 0.000000 0.000000
vt 0.000000 0.000000
vt 0.000000 0.000000
s 0
f 6/6/2 8/8/2 5/5/2
f 6/6/2 7/7/2 8/8/2

o floor
usemtl Bumped
v -2.747011 -2.738233 2.806401
v 2.780989 -2.738233 2.806401
v 2.780989 -2.742686 -2.785599
v -2.715011 -2.742686 -2.785599
vn -0.0000 1.0000 -0.0008
vt 0.100000 0.900000
vt 0.900000 0.900000
vt 0.900000 0.100000
vt 0.100000 0.100000
s 0
f 10/10/3 12/12/3 9/9/3
f 10/10/3 11/11/3 12/12/3

o left_wall
usemtl Magenta
v -2.747011 -2.738233 2.806401
v -2.715011 -2.742686 -2.785599
v -2.779011 2.745314 -2.789968
v -2.779011 2.749764 2.802032
vn 1.0000 0.0058 -0.0000
vn 0.9999 0.0117 0.0057
vt 0.000000 0.000000
vt 0.000000 0.000000
vt 0.000000 0.000000
vt 0.000000 0.000000
s 0
f 13/13/4 15/15/4 16/16/4
f 13/13/5 14/14/5 15/15/5

o light
usemtl White
v -0.649011 2.739334 0.532032
v -0.649011 2.738497 -0.517968
v 0.650989 2.738497 -0.517968
v 0.650989 2.739334 0.532032
vn -0.0000 -1.0000 0.0008
vt 0.000000 0.000000
vt 0.000000 0.000000
vt 0.000000 0.000000
vt 0.000000 0.000000
s 0
f 18/18/6 20/20/6 17/17/6
f 18/18/6 19/19/6 20/20/6

o right_wall
usemtl Yellow
v 2.780989 -2.742686 -2.785599
v 2.780989 -2.738233 2.806401
v 2.780989 2.749764 2.802032
v 2.780989 2.745314 -2.789968
vn -1.0000 -0.0000 -0.0000
vt 0.000000 0.000000
vt 0.000000 0.000000
vt 0.000000 0.000000
vt 0.000000 0.000000
s 0
f 22/22/7 24/24/7 21/21/7
f 22/22/7 23/23/7 24/24/7

o short_box
usemtl Glass
v 0.589076 0.101259 1.354553
v 1.069077 0.099985 -0.245446
v -0.510924 0.099611 -0.715446
v -1.010924 0.100869 0.864554
v -1.010924 -1.549131 0.865866
v -1.010924 0.100869 0.864554
v -0.510924 0.099611 -0.715446
v -0.510924 -1.550389 -0.714133
v 0.589076 -1.548740 1.355866
v 0.589076 0.101259 1.354553
v -1.010924 0.100869 0.864554
v -1.010924 -1.549131 0.865866
v 1.069077 -1.550014 -0.244133
v 1.069077 0.099985 -0.245446
v 0.589076 0.101259 1.354553
v 0.589076 -1.548740 1.355866
v -0.510924 -1.550389 -0.714133
v -0.510924 0.099611 -0.715446
v 1.069077 0.099985 -0.245446
v 1.069077 -1.550014 -0.244133
vn -0.0000 1.0000 -0.0008
vn -0.9534 -0.0002 -0.3017
vn -0.2928 0.0008 0.9562
vn 0.9578 0.0002 0.2873
vn 0.2851 -0.0008 -0.9585
vt 0.000000 0.000000
vt 0.000000 0.000000
vt 0.000000 0.000000
vt 0.000000 0.000000
vt 0.000000 0.000000
vt 0.000000 0.000000
vt 0.000000 0.000000
vt 0.000000 0.000000
vt 0.000000 0.000000
vt 0.000000 0.000000
vt 0.000000 0.000000
vt 0.000000 0.000000
vt 0.000000 0.000000
vt 0.000000 0.000000
vt 0.000000 0.000000
vt 0.000000 0.000000
vt 0.000000 0.000000
vt 0.000000 0.000000
vt 0.000000 0.000000
vt 0.000000 0.000000
s 0
f 25/25/8 27/27/8 28/28/8
f 30/30/9 32/32/9 29/29/9
f 34/34/10 36/36/10 33/33/10
f 38/38/11 40/40/11 37/37/11
f 42/42/12 44/44/12 41/41/12
f 25/25/8 26/26/8 27/27/8
f 30/30/9 31/31/9 32/32/9
f 34/34/10 35/35/10 36/36/10
f 38/38/11 39/39/11 40/40/11
f 42/42/12 43/43/12 44/44/12
