o back_wall
usemtl Grey
v -2.715011 -2.742686 -2.785599
v 2.780989 -2.742686 -2.785599
v 2.780989 2.745314 -2.789966
v -2.779011 2.745314 -2.789966
vn -0.0000 0.0008 1.0000
vt 0.000000 0.000000
vt 0.000000 0.000000
vt 0.000000 0.000000
vt 0.000000 0.000000
s 0
f 1/1/1 3/3/1 4/4/1
f 1/1/1 2/2/1 3/3/1

o ceiling
usemtl Cyan
v -2.779011 2.749764 2.802032
v -2.779011 2.745314 -2.789968
v 2.780989 2.745314 -2.789968
v 2.780989 2.749764 2.802032
vn -0.0000 -1.0000 0.0008
vt 0.000000 0.000000
vt 0.000000 0.000000
vt 0.000000 0.000000
vt 0.000000 0.000000
f 6/6/2 8/8/2 5/5/2
f 6/6/2 7/7/2 8/8/2

o floor
usemtl Bumped
v -2.747011 -2.738233 2.806401
v 2.780989 -2.738233 2.806401
v 2.780989 -2.742686 -2.785599
v -2.715011 -2.742686 -2.785599
vn -0.0000 1.0000 -0.0008
vt 0.100000 0.900000
vt 0.900000 0.900000
vt 0.900000 0.100000
vt 0.100000 0.100000
f 10/10/3 12/12/3 9/9/3
f 10/10/3 11/11/3 12/12/3

o left_wall
usemtl Magenta
v -2.747011 -2.738233 2.806401
v -2.715011 -2.742686 -2.785599
v -2.779011 2.745314 -2.789968
v -2.779011 2.749764 2.802032
vn 1.0000 0.0058 -0.0000
vn 0.9999 0.0117 0.0057
vt 0.000000 0.000000
vt 0.000000 0.000000
vt 0.000000 0.000000
vt 0.000000 0.000000
s 0
f 13/13/4 15/15/4 16/16/4
f 13/13/5 14/14/5 15/15/5

o light
usemtl White
v -0.649011 2.739334 0.532032
v -0.649011 2.738497 -0.517968
v 0.650989 2.738497 -0.517968
v 0.650989 2.739334 0.532032
vn -0.0000 -1.0000 0.0008
vt 0.000000 0.000000
vt 0.000000 0.000000
vt 0.000000 0.000000
vt 0.000000 0.000000
s 0
f 18/18/6 20/20/6 17/17/6
f 18/18/6 19/19/6 20/20/6

o right_wall
usemtl Yellow
v 2.780989 -2.742686 -2.785599
v 2.780989 -2.738233 2.806401
v 2.780989 2.749764 2.802032
v 2.780989 2.745314 -2.789968
vn -1.0000 -0.0000 -0.0000
vt 0.000000 0.000000
vt 0.000000 0.000000
vt 0.000000 0.000000
vt 0.000000 0.000000
s 0
f 22/22/7 24/24/7 21/21/7
f 22/22/7 23/23/7 24/24/7

o sphere
usemtl Red
v -1.130320 -1.990148 -0.606171
v -1.400918 -1.990148 -0.718256
v -1.671516 -1.990148 -0.606171
v -1.783601 -1.990148 -0.335573
v -1.671516 -1.990148 -0.064975
v -1.400918 -1.990148 0.047110
v -1.130320 -1.990148 -0.064975
v -1.018235 -1.990148 -0.335573
v -0.900918 -1.773375 -0.835573
v -1.400918 -1.773375 -1.042680
v -1.900918 -1.773375 -0.835573
v -2.108025 -1.773375 -0.335573
v -1.900918 -1.773375 0.164427
v -1.400918 -1.773375 0.371534
v -0.900918 -1.773375 0.164427
v -0.693811 -1.773375 -0.335573
v -0.747637 -1.448951 -0.988854
v -1.400918 -1.448951 -1.259452
v -2.054199 -1.448951 -0.988854
v -2.324797 -1.448951 -0.335573
v -2.054199 -1.448951 0.317708
v -1.400918 -1.448951 0.588306
v -0.747637 -1.448951 0.317708
v -0.477038 -1.448951 -0.335573
v -0.693811 -1.066267 -1.042680
v -1.400918 -1.066267 -1.335573
v -2.108025 -1.066267 -1.042680
v -2.400918 -1.066268 -0.335573
v -2.108025 -1.066268 0.371534
v -1.400918 -1.066268 0.664427
v -0.693811 -1.066268 0.371534
v -0.400918 -1.066268 -0.335573
v -0.747637 -0.683584 -0.988854
v -1.400918 -0.683584 -1.259452
v -2.054199 -0.683584 -0.988854
v -2.324797 -0.683585 -0.335573
v -2.054199 -0.683585 0.317708
v -1.400918 -0.683585 0.588306
v -0.747637 -0.683585 0.317708
v -0.477038 -0.683585 -0.335573
v -0.900918 -0.359160 -0.835573
v -1.400918 -0.359160 -1.042680
v -1.900918 -0.359160 -0.835573
v -2.108025 -0.359161 -0.335573
v -1.900918 -0.359161 0.164427
v -1.400918 -0.359161 0.371534
v -0.900918 -0.359161 0.164427
v -0.693811 -0.359161 -0.335573
v -1.130320 -0.142387 -0.606171
v -1.400918 -0.142387 -0.718256
v -1.671516 -0.142387 -0.606171
v -1.783601 -0.142388 -0.335573
v -1.671516 -0.142388 -0.064975
v -1.400918 -0.142388 0.047110
v -1.130320 -0.142388 -0.064975
v -1.018235 -0.142388 -0.335573
v -1.400918 -2.066268 -0.335573
v -1.400918 -0.066268 -0.335573
vn 0.3275 -0.9079 -0.2618
vn 0.0464 -0.9079 -0.4167
vn 0.5111 -0.7091 -0.4858
vn 0.5111 -0.7091 -0.4857
vn 0.0180 -0.7091 -0.7049
vn -0.2618 -0.9079 -0.3275
vn 0.0179 -0.7091 -0.7049
vn -0.4857 -0.7091 -0.5111
vn -0.4167 -0.9079 -0.0464
vn -0.4858 -0.7091 -0.5111
vn -0.7049 -0.7091 -0.0180
vn -0.3275 -0.9079 0.2618
vn -0.7049 -0.7091 -0.0179
vn -0.5111 -0.7091 0.4857
vn -0.0464 -0.9079 0.4167
vn -0.5111 -0.7091 0.4858
vn -0.0180 -0.7091 0.7049
vn 0.2618 -0.9079 0.3275
vn -0.0179 -0.7091 0.7049
vn 0.4857 -0.7091 0.5111
vn 0.4167 -0.9079 0.0464
vn 0.4858 -0.7091 0.5111
vn 0.7049 -0.7091 0.0180
vn 0.7049 -0.7091 0.0179
vn 0.6592 -0.3846 -0.6462
vn 0.0092 -0.3845 -0.9231
vn 0.0092 -0.3846 -0.9231
vn -0.6462 -0.3845 -0.6592
vn -0.6462 -0.3846 -0.6592
vn -0.9231 -0.3845 -0.0092
vn 0.6592 -0.3845 -0.6462
vn -0.9231 -0.3846 -0.0092
vn -0.6592 -0.3845 0.6462
vn -0.6592 -0.3846 0.6462
vn -0.0092 -0.3845 0.9231
vn -0.0092 -0.3846 0.9231
vn 0.6462 -0.3845 0.6592
vn 0.6462 -0.3846 0.6592
vn 0.9231 -0.3845 0.0092
vn 0.9231 -0.3846 0.0092
vn 0.7071 -0.0000 -0.7071
vn -0.0000 -0.0000 -1.0000
vn -0.7071 -0.0000 -0.7071
vn -1.0000 -0.0000 -0.0000
vn -0.7071 -0.0000 0.7071
vn -0.0000 -0.0000 1.0000
vn 0.7071 -0.0000 0.7071
vn 1.0000 -0.0000 -0.0000
vn 0.6462 0.3846 -0.6592
vn 0.6462 0.3845 -0.6592
vn -0.0092 0.3845 -0.9231
vn -0.6592 0.3845 -0.6462
vn -0.6592 0.3846 -0.6462
vn -0.9231 0.3845 0.0092
vn -0.6462 0.3845 0.6592
vn -0.6462 0.3846 0.6592
vn 0.0092 0.3845 0.9231
vn 0.6592 0.3845 0.6462
vn 0.6592 0.3846 0.6462
vn 0.9231 0.3845 -0.0092
vn -0.0092 0.3846 -0.9231
vn 0.4857 0.7091 -0.5111
vn -0.0179 0.7091 -0.7049
vn -0.0180 0.7091 -0.7049
vn -0.5111 0.7091 -0.4857
vn -0.9231 0.3846 0.0092
vn -0.7049 0.7091 0.0179
vn -0.7049 0.7091 0.0180
vn -0.4857 0.7091 0.5111
vn 0.0092 0.3846 0.9231
vn 0.0179 0.7091 0.7049
vn 0.0180 0.7091 0.7049
vn 0.5111 0.7091 0.4857
vn 0.9231 0.3846 -0.0092
vn 0.7049 0.7091 -0.0179
vn 0.7049 0.7091 -0.0180
vn 0.2618 0.9079 -0.3275
vn -0.0464 0.9079 -0.4167
vn -0.5111 0.7091 -0.4858
vn -0.3275 0.9079 -0.2618
vn -0.4167 0.9079 0.0464
vn -0.4858 0.7091 0.5111
vn -0.2618 0.9079 0.3275
vn 0.0464 0.9079 0.4167
vn 0.5111 0.7091 0.4858
vn 0.3275 0.9079 0.2618
vn 0.4167 0.9079 -0.0464
vn 0.4858 0.7091 -0.5111
vn -0.0000 -1.0000 -0.0000
vn -0.0000 1.0000 -0.0000
f 25/8 26/9 33/10
f 33/11 26/9 34/12
f 26/9 27/13 34/14
f 34/14 27/13 35/15
f 27/13 28/16 35/17
f 35/15 28/16 36/18
f 28/16 29/19 36/20
f 36/20 29/19 37/21
f 29/19 30/22 37/23
f 37/21 30/22 38/24
f 30/22 31/25 38/26
f 38/26 31/25 39/27
f 31/25 32/28 39/29
f 39/27 32/28 40/30
f 32/28 25/8 40/31
f 41/32 34/12 42/33
f 40/31 25/8 33/11
f 34/14 35/15 42/33
f 42/34 35/15 43/35
f 35/15 36/20 43/35
f 43/36 36/18 44/37
f 33/11 34/14 41/38
f 36/20 37/21 44/37
f 44/39 37/21 45/40
f 37/21 38/26 45/40
f 45/41 38/24 46/42
f 38/26 39/27 46/42
f 46/43 39/27 47/44
f 39/27 40/31 47/44
f 47/45 40/30 48/46
f 40/31 33/11 48/46
f 48/47 33/11 41/38
f 41/38 42/33 49/48
f 49/48 42/33 50/49
f 42/33 43/35 50/49
f 50/49 43/36 51/50
f 43/35 44/37 51/50
f 51/50 44/39 52/51
f 44/37 45/40 52/51
f 52/51 45/41 53/52
f 45/40 46/42 53/52
f 53/52 46/42 54/53
f 46/42 47/44 54/53
f 54/53 47/45 55/54
f 47/44 48/46 55/54
f 55/54 48/46 56/55
f 48/46 41/38 56/55
f 56/55 41/32 49/48
f 49/48 50/49 57/56
f 57/57 50/49 58/58
f 50/49 51/50 58/58
f 58/58 51/50 59/59
f 51/50 52/51 59/60
f 59/59 52/51 60/61
f 52/51 53/52 60/61
f 60/61 53/52 61/62
f 53/52 54/53 61/63
f 61/62 54/53 62/64
f 54/53 55/54 62/64
f 62/64 55/54 63/65
f 55/54 56/55 63/66
f 63/65 56/55 64/67
f 56/55 49/48 64/67
f 64/67 49/48 57/57
f 57/57 58/68 65/69
f 65/69 58/58 66/70
f 58/58 59/60 66/71
f 66/70 59/59 67/72
f 59/59 60/73 67/72
f 67/72 60/61 68/74
f 60/61 61/63 68/75
f 68/74 61/62 69/76
f 61/62 62/77 69/76
f 69/76 62/64 70/78
f 62/64 63/66 70/79
f 70/78 63/65 71/80
f 63/65 64/81 71/80
f 71/80 64/67 72/82
f 64/67 57/56 72/83
f 72/82 57/57 65/69
f 65/69 66/70 73/84
f 73/84 66/70 74/85
f 66/71 67/72 74/85
f 74/85 67/86 75/87
f 67/72 68/74 75/87
f 75/87 68/74 76/88
f 68/75 69/76 76/88
f 76/88 69/89 77/90
f 69/76 70/78 77/90
f 77/90 70/78 78/91
f 70/79 71/80 78/91
f 78/91 71/92 79/93
f 71/80 72/82 79/93
f 79/93 72/82 80/94
f 72/83 65/69 80/94
f 80/94 65/95 73/84
f 26/9 25/8 81/96
f 27/13 26/9 81/96
f 28/16 27/13 81/96
f 29/19 28/16 81/96
f 30/22 29/19 81/96
f 31/25 30/22 81/96
f 32/28 31/25 81/96
f 25/8 32/28 81/96
f 73/84 74/85 82/97
f 74/85 75/87 82/97
f 75/87 76/88 82/97
f 76/88 77/90 82/97
f 77/90 78/91 82/97
f 78/91 79/93 82/97
f 79/93 80/94 82/97
f 80/94 73/84 82/97

o sphere.001
usemtl Environment
v 1.732640 -2.107642 0.657552
v 1.462042 -2.107642 0.545467
v 1.191444 -2.107642 0.657552
v 1.079359 -2.107642 0.928150
v 1.191444 -2.107642 1.198748
v 1.462042 -2.107642 1.310833
v 1.732640 -2.107642 1.198748
v 1.844725 -2.107642 0.928150
v 1.962042 -1.890869 0.428150
v 1.462042 -1.890869 0.221043
v 0.962042 -1.890869 0.428150
v 0.754935 -1.890869 0.928150
v 0.962042 -1.890869 1.428150
v 1.462042 -1.890869 1.635257
v 1.962042 -1.890869 1.428150
v 2.169149 -1.890869 0.928150
v 2.115323 -1.566445 0.274869
v 1.462042 -1.566445 0.004271
v 0.808761 -1.566445 0.274869
v 0.538163 -1.566445 0.928150
v 0.808761 -1.566445 1.581431
v 1.462042 -1.566445 1.852029
v 2.115323 -1.566445 1.581431
v 2.385922 -1.566445 0.928150
v 2.169149 -1.183762 0.221043
v 1.462042 -1.183762 -0.071850
v 0.754935 -1.183762 0.221043
v 0.462042 -1.183762 0.928150
v 0.754935 -1.183762 1.635257
v 1.462042 -1.183762 1.928150
v 2.169149 -1.183762 1.635257
v 2.462042 -1.183762 0.928150
v 2.115323 -0.801079 0.274869
v 1.462042 -0.801079 0.004271
v 0.808761 -0.801079 0.274869
v 0.538163 -0.801079 0.928150
v 0.808761 -0.801079 1.581431
v 1.462042 -0.801079 1.852029
v 2.115323 -0.801079 1.581431
v 2.385922 -0.801079 0.928150
v 1.962042 -0.476655 0.428150
v 1.462042 -0.476655 0.221043
v 0.962042 -0.476655 0.428150
v 0.754935 -0.476655 0.928150
v 0.962042 -0.476655 1.428150
v 1.462042 -0.476655 1.635257
v 1.962042 -0.476655 1.428150
v 2.169149 -0.476655 0.928150
v 1.732640 -0.259882 0.657552
v 1.462042 -0.259882 0.545467
v 1.191444 -0.259882 0.657552
v 1.079359 -0.259882 0.928150
v 1.191444 -0.259882 1.198748
v 1.462042 -0.259882 1.310833
v 1.732640 -0.259882 1.198748
v 1.844725 -0.259882 0.928150
v 1.462042 -2.183762 0.928150
v 1.462042 -0.183762 0.928150
vn 0.3275 -0.9079 -0.2618
vn 0.0464 -0.9079 -0.4167
vn 0.5111 -0.7091 -0.4858
vn 0.5111 -0.7091 -0.4857
vn 0.0180 -0.7091 -0.7049
vn -0.2618 -0.9079 -0.3275
vn 0.0179 -0.7091 -0.7049
vn -0.4857 -0.7091 -0.5111
vn -0.4167 -0.9079 -0.0464
vn -0.4858 -0.7091 -0.5111
vn -0.7049 -0.7091 -0.0180
vn -0.3275 -0.9079 0.2618
vn -0.7049 -0.7091 -0.0179
vn -0.5111 -0.7091 0.4857
vn -0.0464 -0.9079 0.4167
vn -0.5111 -0.7091 0.4858
vn -0.0180 -0.7091 0.7049
vn 0.2618 -0.9079 0.3275
vn -0.0179 -0.7091 0.7049
vn 0.4857 -0.7091 0.5111
vn 0.4167 -0.9079 0.0464
vn 0.4858 -0.7091 0.5111
vn 0.7049 -0.7091 0.0180
vn 0.7049 -0.7091 0.0179
vn 0.6592 -0.3846 -0.6462
vn 0.0092 -0.3845 -0.9231
vn 0.0092 -0.3846 -0.9231
vn -0.6462 -0.3845 -0.6592
vn -0.6462 -0.3846 -0.6592
vn -0.9231 -0.3845 -0.0092
vn 0.6592 -0.3845 -0.6462
vn -0.9231 -0.3846 -0.0092
vn -0.6592 -0.3845 0.6462
vn -0.6592 -0.3846 0.6462
vn -0.0092 -0.3845 0.9231
vn -0.0092 -0.3846 0.9231
vn 0.6462 -0.3845 0.6592
vn 0.6462 -0.3846 0.6592
vn 0.9231 -0.3845 0.0092
vn 0.9231 -0.3846 0.0092
vn 0.7071 -0.0000 -0.7071
vn -0.0000 -0.0000 -1.0000
vn -0.7071 -0.0000 -0.7071
vn -1.0000 -0.0000 -0.0000
vn -0.7071 -0.0000 0.7071
vn -0.0000 -0.0000 1.0000
vn 0.7071 -0.0000 0.7071
vn 1.0000 -0.0000 -0.0000
vn 0.6462 0.3846 -0.6592
vn 0.6462 0.3845 -0.6592
vn -0.0092 0.3845 -0.9231
vn -0.6592 0.3845 -0.6462
vn -0.6592 0.3846 -0.6462
vn -0.9231 0.3845 0.0092
vn -0.6462 0.3845 0.6592
vn -0.6462 0.3846 0.6592
vn 0.0092 0.3845 0.9231
vn 0.6592 0.3845 0.6462
vn 0.6592 0.3846 0.6462
vn 0.9231 0.3845 -0.0092
vn -0.0092 0.3846 -0.9231
vn 0.4857 0.7091 -0.5111
vn -0.0179 0.7091 -0.7049
vn -0.0180 0.7091 -0.7049
vn -0.5111 0.7091 -0.4857
vn -0.9231 0.3846 0.0092
vn -0.7049 0.7091 0.0179
vn -0.7049 0.7091 0.0180
vn -0.4857 0.7091 0.5111
vn 0.0092 0.3846 0.9231
vn 0.0179 0.7091 0.7049
vn 0.0180 0.7091 0.7049
vn 0.5111 0.7091 0.4857
vn 0.9231 0.3846 -0.0092
vn 0.7049 0.7091 -0.0179
vn 0.7049 0.7091 -0.0180
vn 0.2618 0.9079 -0.3275
vn -0.0464 0.9079 -0.4167
vn -0.5111 0.7091 -0.4858
vn -0.3275 0.9079 -0.2618
vn -0.4167 0.9079 0.0464
vn -0.4858 0.7091 0.5111
vn -0.2618 0.9079 0.3275
vn 0.0464 0.9079 0.4167
vn 0.5111 0.7091 0.4858
vn 0.3275 0.9079 0.2618
vn 0.4167 0.9079 -0.0464
vn 0.4858 0.7091 -0.5111
vn -0.0000 -1.0000 -0.0000
vn -0.0000 1.0000 -0.0000
f 83/98 84/99 91/100
f 91/101 84/99 92/102
f 84/99 85/103 92/104
f 92/104 85/103 93/105
f 85/103 86/106 93/107
f 93/105 86/106 94/108
f 86/106 87/109 94/110
f 94/110 87/109 95/111
f 87/109 88/112 95/113
f 95/111 88/112 96/114
f 88/112 89/115 96/116
f 96/116 89/115 97/117
f 89/115 90/118 97/119
f 97/117 90/118 98/120
f 90/118 83/98 98/121
f 99/122 92/102 100/123
f 98/121 83/98 91/101
f 92/104 93/105 100/123
f 100/124 93/105 101/125
f 93/105 94/110 101/125
f 101/126 94/108 102/127
f 91/101 92/104 99/128
f 94/110 95/111 102/127
f 102/129 95/111 103/130
f 95/111 96/116 103/130
f 103/131 96/114 104/132
f 96/116 97/117 104/132
f 104/133 97/117 105/134
f 97/117 98/121 105/134
f 105/135 98/120 106/136
f 98/121 91/101 106/136
f 106/137 91/101 99/128
f 99/128 100/123 107/138
f 107/138 100/123 108/139
f 100/123 101/125 108/139
f 108/139 101/126 109/140
f 101/125 102/127 109/140
f 109/140 102/129 110/141
f 102/127 103/130 110/141
f 110/141 103/131 111/142
f 103/130 104/132 111/142
f 111/142 104/132 112/143
f 104/132 105/134 112/143
f 112/143 105/135 113/144
f 105/134 106/136 113/144
f 113/144 106/136 114/145
f 106/136 99/128 114/145
f 114/145 99/122 107/138
f 107/138 108/139 115/146
f 115/147 108/139 116/148
f 108/139 109/140 116/148
f 116/148 109/140 117/149
f 109/140 110/141 117/150
f 117/149 110/141 118/151
f 110/141 111/142 118/151
f 118/151 111/142 119/152
f 111/142 112/143 119/153
f 119/152 112/143 120/154
f 112/143 113/144 120/154
f 120/154 113/144 121/155
f 113/144 114/145 121/156
f 121/155 114/145 122/157
f 114/145 107/138 122/157
f 122/157 107/138 115/147
f 115/147 116/158 123/159
f 123/159 116/148 124/160
f 116/148 117/150 124/161
f 124/160 117/149 125/162
f 117/149 118/163 125/162
f 125/162 118/151 126/164
f 118/151 119/153 126/165
f 126/164 119/152 127/166
f 119/152 120/167 127/166
f 127/166 120/154 128/168
f 120/154 121/156 128/169
f 128/168 121/155 129/170
f 121/155 122/171 129/170
f 129/170 122/157 130/172
f 122/157 115/146 130/173
f 130/172 115/147 123/159
f 123/159 124/160 131/174
f 131/174 124/160 132/175
f 124/161 125/162 132/175
f 132/175 125/176 133/177
f 125/162 126/164 133/177
f 133/177 126/164 134/178
f 126/165 127/166 134/178
f 134/178 127/179 135/180
f 127/166 128/168 135/180
f 135/180 128/168 136/181
f 128/169 129/170 136/181
f 136/181 129/182 137/183
f 129/170 130/172 137/183
f 137/183 130/172 138/184
f 130/173 123/159 138/184
f 138/184 123/185 131/174
f 84/99 83/98 139/186
f 85/103 84/99 139/186
f 86/106 85/103 139/186
f 87/109 86/106 139/186
f 88/112 87/109 139/186
f 89/115 88/112 139/186
f 90/118 89/115 139/186
f 83/98 90/118 139/186
f 131/174 132/175 140/187
f 132/175 133/177 140/187
f 133/177 134/178 140/187
f 134/178 135/180 140/187
f 135/180 136/181 140/187
f 136/181 137/183 140/187
f 137/183 138/184 140/187
f 138/184 131/174 140/187
