# Blender 3.3.1
# www.blender.org
mtllib untitled.mtl

o back_wall
usemtl Grey
v -2.715011 -2.742686 -2.785599
v 2.780989 -2.742686 -2.785599
v 2.780989 2.745314 -2.789966
v -2.779011 2.745314 -2.789966
vn -0.0000 0.0008 1.0000
vt 0.000000 0.000000
vt 0.000000 0.000000
vt 0.000000 0.000000
vt 0.000000 0.000000
s 0
f 1/1/1 3/3/1 4/4/1
f 1/1/1 2/2/1 3/3/1

o ceiling
usemtl Cyan
v -2.779011 2.749764 2.802032
v -2.779011 2.745314 -2.789968
v 2.780989 2.745314 -2.789968
v 2.780989 2.749764 2.802032
vn -0.0000 -1.0000 0.0008
vt 0.000000 0.000000
vt 0.000000 0.000000
vt 0.000000 0.000000
vt 0.000000 0.000000
s 0
f 6/6/2 8/8/2 5/5/2
f 6/6/2 7/7/2 8/8/2

o floor
usemtl Cobbles
v -2.747011 -2.738233 2.806401
v 2.780989 -2.738233 2.806401
v 2.780989 -2.742686 -2.785599
v -2.715011 -2.742686 -2.785599
vn -0.0000 1.0000 -0.0008
vt 0.100000 0.900000
vt 0.900000 0.900000
vt 0.900000 0.100000
vt 0.100000 0.100000
s 0
f 10/10/3 12/12/3 9/9/3
f 10/10/3 11/11/3 12/12/3

o left_wall
usemtl Magenta
v -2.747011 -2.738233 2.806401
v -2.715011 -2.742686 -2.785599
v -2.779011 2.745314 -2.789968
v -2.779011 2.749764 2.802032
vn 1.0000 0.0058 -0.0000
vn 0.9999 0.0117 0.0057
vt 0.000000 0.000000
vt 0.000000 0.000000
vt 0.000000 0.000000
vt 0.000000 0.000000
s 0
f 13/13/4 15/15/4 16/16/4
f 13/13/5 14/14/5 15/15/5

o light
usemtl White
v -0.649011 2.739334 0.532032
v -0.649011 2.738497 -0.517968
v 0.650989 2.738497 -0.517968
v 0.650989 2.739334 0.532032
vn -0.0000 -1.0000 0.0008
vt 0.000000 0.000000
vt 0.000000 0.000000
vt 0.000000 0.000000
vt 0.000000 0.000000
s 0
f 18/18/6 20/20/6 17/17/6
f 18/18/6 19/19/6 20/20/6

o right_wall
usemtl Yellow
v 2.780989 -2.742686 -2.785599
v 2.780989 -2.738233 2.806401
v 2.780989 2.749764 2.802032
v 2.780989 2.745314 -2.789968
vn -1.0000 -0.0000 -0.0000
vt 0.000000 0.000000
vt 0.000000 0.000000
vt 0.000000 0.000000
vt 0.000000 0.000000
s 0
f 22/22/7 24/24/7 21/21/7
f 22/22/7 23/23/7 24/24/7

o short_box
usemtl Red
v 1.480989 -1.088751 2.155087
v 1.960989 -1.090025 0.555088
v 0.380989 -1.090399 0.085088
v -0.119011 -1.089141 1.665088
v -0.119011 -2.739141 1.666400
v -0.119011 -1.089141 1.665088
v 0.380989 -1.090399 0.085088
v 0.380989 -2.740399 0.086401
v 1.480989 -2.738750 2.156400
v 1.480989 -1.088751 2.155087
v -0.119011 -1.089141 1.665088
v -0.119011 -2.739141 1.666400
v 1.960989 -2.740024 0.556402
v 1.960989 -1.090025 0.555088
v 1.480989 -1.088751 2.155087
v 1.480989 -2.738750 2.156400
v 0.380989 -2.740399 0.086401
v 0.380989 -1.090399 0.085088
v 1.960989 -1.090025 0.555088
v 1.960989 -2.740024 0.556402
vn -0.0000 1.0000 -0.0008
vn -0.9534 -0.0002 -0.3017
vn -0.2928 0.0008 0.9562
vn 0.9578 0.0002 0.2873
vn 0.2851 -0.0008 -0.9585
vt 0.000000 0.000000
vt 0.000000 0.000000
vt 0.000000 0.000000
vt 0.000000 0.000000
vt 0.000000 0.000000
vt 0.000000 0.000000
vt 0.000000 0.000000
vt 0.000000 0.000000
vt 0.000000 0.000000
vt 0.000000 0.000000
vt 0.000000 0.000000
vt 0.000000 0.000000
vt 0.000000 0.000000
vt 0.000000 0.000000
vt 0.000000 0.000000
vt 0.000000 0.000000
vt 0.000000 0.000000
vt 0.000000 0.000000
vt 0.000000 0.000000
vt 0.000000 0.000000
s 0
f 25/25/8 27/27/8 28/28/8
f 30/30/9 32/32/9 29/29/9
f 34/34/10 36/36/10 33/33/10
f 38/38/11 40/40/11 37/37/11
f 42/42/12 44/44/12 41/41/12
f 25/25/8 26/26/8 27/27/8
f 30/30/9 31/31/9 32/32/9
f 34/34/10 35/35/10 36/36/10
f 38/38/11 39/39/11 40/40/11
f 42/42/12 43/43/12 44/44/12

o tall_box
usemtl Blue
v -1.449011 0.559799 0.333774
v 0.130989 0.559409 -0.156226
v -0.359011 0.558135 -1.756226
v -1.939011 0.558533 -1.256226
v -1.449011 -2.740200 0.336401
v -1.449011 0.559799 0.333774
v -1.939011 0.558533 -1.256226
v -1.939011 -2.741466 -1.253598
v -1.939011 -2.741466 -1.253598
v -1.939011 0.558533 -1.256226
v -0.359011 0.558135 -1.756226
v -0.359011 -2.741864 -1.753598
v -0.359011 -2.741864 -1.753598
v -0.359011 0.558135 -1.756226
v 0.130989 0.559409 -0.156226
v 0.130989 -2.740590 -0.153599
v 0.130989 -2.740590 -0.153599
v 0.130989 0.559409 -0.156226
v -1.449011 0.559799 0.333774
v -1.449011 -2.740200 0.336401
vn -0.0000 1.0000 -0.0008
vn -0.9556 0.0002 0.2945
vn -0.3017 -0.0008 -0.9534
vn 0.9562 -0.0002 -0.2928
vn 0.2962 0.0008 0.9551
vt 0.000000 0.000000
vt 0.000000 0.000000
vt 0.000000 0.000000
vt 0.000000 0.000000
vt 0.000000 0.000000
vt 0.000000 0.000000
vt 0.000000 0.000000
vt 0.000000 0.000000
vt 0.000000 0.000000
vt 0.000000 0.000000
vt 0.000000 0.000000
vt 0.000000 0.000000
vt 0.000000 0.000000
vt 0.000000 0.000000
vt 0.000000 0.000000
vt 0.000000 0.000000
vt 0.000000 0.000000
vt 0.000000 0.000000
vt 0.000000 0.000000
vt 0.000000 0.000000
s 0
f 46/46/13 48/48/13 45/45/13
f 49/49/14 51/51/14 52/52/14
f 54/54/15 56/56/15 53/53/15
f 58/58/16 60/60/16 57/57/16
f 62/62/17 64/64/17 61/61/17
f 46/46/13 47/47/13 48/48/13
f 49/49/14 50/50/14 51/51/14
f 54/54/15 55/55/15 56/56/15
f 58/58/16 59/59/16 60/60/16
f 62/62/17 63/63/17 64/64/17

o sphere
usemtl Red
v 1.559448 0.213294 0.633616
v 1.288850 0.213294 0.521531
v 1.018252 0.213294 0.633616
v 0.906167 0.213293 0.904214
v 1.018252 0.213293 1.174812
v 1.288850 0.213293 1.286897
v 1.559448 0.213293 1.174812
v 1.671533 0.213293 0.904214
v 1.788850 0.430067 0.404214
v 1.288850 0.430067 0.197107
v 0.788850 0.430067 0.404214
v 0.581743 0.430066 0.904214
v 0.788850 0.430066 1.404214
v 1.288850 0.430066 1.611321
v 1.788850 0.430066 1.404214
v 1.995957 0.430066 0.904214
v 1.942131 0.754491 0.250933
v 1.288850 0.754491 -0.019665
v 0.635569 0.754491 0.250933
v 0.364971 0.754490 0.904214
v 0.635569 0.754490 1.557495
v 1.288850 0.754490 1.828093
v 1.942131 0.754490 1.557495
v 2.212730 0.754490 0.904214
v 1.995957 1.137174 0.197107
v 1.288850 1.137174 -0.095786
v 0.581743 1.137174 0.197107
v 0.288850 1.137174 0.904214
v 0.581743 1.137173 1.611321
v 1.288850 1.137173 1.904214
v 1.995957 1.137173 1.611321
v 2.288850 1.137174 0.904214
v 1.942131 1.519857 0.250933
v 1.288850 1.519857 -0.019665
v 0.635569 1.519857 0.250933
v 0.364971 1.519857 0.904214
v 0.635569 1.519856 1.557495
v 1.288850 1.519856 1.828093
v 1.942131 1.519856 1.557495
v 2.212730 1.519857 0.904214
v 1.788850 1.844281 0.404214
v 1.288850 1.844281 0.197107
v 0.788850 1.844281 0.404214
v 0.581743 1.844280 0.904214
v 0.788850 1.844280 1.404214
v 1.288850 1.844280 1.611321
v 1.788850 1.844280 1.404214
v 1.995957 1.844280 0.904214
v 1.559448 2.061054 0.633616
v 1.288850 2.061054 0.521531
v 1.018252 2.061054 0.633616
v 0.906167 2.061054 0.904214
v 1.018252 2.061054 1.174812
v 1.288850 2.061054 1.286897
v 1.559448 2.061054 1.174812
v 1.671533 2.061054 0.904214
v 1.288850 0.137174 0.904214
v 1.288850 2.137173 0.904214
vn 0.3275 -0.9079 -0.2618
vn 0.0464 -0.9079 -0.4167
vn 0.5111 -0.7091 -0.4858
vn 0.5111 -0.7091 -0.4857
vn 0.0180 -0.7091 -0.7049
vn -0.2618 -0.9079 -0.3275
vn 0.0179 -0.7091 -0.7049
vn -0.4857 -0.7091 -0.5111
vn -0.4167 -0.9079 -0.0464
vn -0.4858 -0.7091 -0.5111
vn -0.7049 -0.7091 -0.0180
vn -0.3275 -0.9079 0.2618
vn -0.7049 -0.7091 -0.0179
vn -0.5111 -0.7091 0.4857
vn -0.0464 -0.9079 0.4167
vn -0.5111 -0.7091 0.4858
vn -0.0180 -0.7091 0.7049
vn 0.2618 -0.9079 0.3275
vn -0.0179 -0.7091 0.7049
vn 0.4857 -0.7091 0.5111
vn 0.4167 -0.9079 0.0464
vn 0.4858 -0.7091 0.5111
vn 0.7049 -0.7091 0.0180
vn 0.7049 -0.7091 0.0179
vn 0.6592 -0.3846 -0.6462
vn 0.0092 -0.3845 -0.9231
vn 0.0092 -0.3846 -0.9231
vn -0.6462 -0.3845 -0.6592
vn -0.6462 -0.3846 -0.6592
vn -0.9231 -0.3845 -0.0092
vn 0.6592 -0.3845 -0.6462
vn -0.9231 -0.3846 -0.0092
vn -0.6592 -0.3845 0.6462
vn -0.6592 -0.3846 0.6462
vn -0.0092 -0.3845 0.9231
vn -0.0092 -0.3846 0.9231
vn 0.6462 -0.3845 0.6592
vn 0.6462 -0.3846 0.6592
vn 0.9231 -0.3845 0.0092
vn 0.9231 -0.3846 0.0092
vn 0.7071 -0.0000 -0.7071
vn -0.0000 -0.0000 -1.0000
vn -0.7071 -0.0000 -0.7071
vn -1.0000 -0.0000 -0.0000
vn -0.7071 -0.0000 0.7071
vn -0.0000 -0.0000 1.0000
vn 0.7071 -0.0000 0.7071
vn 1.0000 -0.0000 -0.0000
vn 0.6462 0.3846 -0.6592
vn 0.6462 0.3845 -0.6592
vn -0.0092 0.3845 -0.9231
vn -0.6592 0.3845 -0.6462
vn -0.6592 0.3846 -0.6462
vn -0.9231 0.3845 0.0092
vn -0.6462 0.3845 0.6592
vn -0.6462 0.3846 0.6592
vn 0.0092 0.3845 0.9231
vn 0.6592 0.3845 0.6462
vn 0.6592 0.3846 0.6462
vn 0.9231 0.3845 -0.0092
vn -0.0092 0.3846 -0.9231
vn 0.4857 0.7091 -0.5111
vn -0.0179 0.7091 -0.7049
vn -0.0180 0.7091 -0.7049
vn -0.5111 0.7091 -0.4857
vn -0.9231 0.3846 0.0092
vn -0.7049 0.7091 0.0179
vn -0.7049 0.7091 0.0180
vn -0.4857 0.7091 0.5111
vn 0.0092 0.3846 0.9231
vn 0.0179 0.7091 0.7049
vn 0.0180 0.7091 0.7049
vn 0.5111 0.7091 0.4857
vn 0.9231 0.3846 -0.0092
vn 0.7049 0.7091 -0.0179
vn 0.7049 0.7091 -0.0180
vn 0.2618 0.9079 -0.3275
vn -0.0464 0.9079 -0.4167
vn -0.5111 0.7091 -0.4858
vn -0.3275 0.9079 -0.2618
vn -0.4167 0.9079 0.0464
vn -0.4858 0.7091 0.5111
vn -0.2618 0.9079 0.3275
vn 0.0464 0.9079 0.4167
vn 0.5111 0.7091 0.4858
vn 0.3275 0.9079 0.2618
vn 0.4167 0.9079 -0.0464
vn 0.4858 0.7091 -0.5111
vn -0.0000 -1.0000 -0.0000
vn -0.0000 1.0000 -0.0000
f 65/18 66/19 73/20
f 73/21 66/19 74/22
f 66/19 67/23 74/24
f 74/24 67/23 75/25
f 67/23 68/26 75/27
f 75/25 68/26 76/28
f 68/26 69/29 76/30
f 76/30 69/29 77/31
f 69/29 70/32 77/33
f 77/31 70/32 78/34
f 70/32 71/35 78/36
f 78/36 71/35 79/37
f 71/35 72/38 79/39
f 79/37 72/38 80/40
f 72/38 65/18 80/41
f 81/42 74/22 82/43
f 80/41 65/18 73/21
f 74/24 75/25 82/43
f 82/44 75/25 83/45
f 75/25 76/30 83/45
f 83/46 76/28 84/47
f 73/21 74/24 81/48
f 76/30 77/31 84/47
f 84/49 77/31 85/50
f 77/31 78/36 85/50
f 85/51 78/34 86/52
f 78/36 79/37 86/52
f 86/53 79/37 87/54
f 79/37 80/41 87/54
f 87/55 80/40 88/56
f 80/41 73/21 88/56
f 88/57 73/21 81/48
f 81/48 82/43 89/58
f 89/58 82/43 90/59
f 82/43 83/45 90/59
f 90/59 83/46 91/60
f 83/45 84/47 91/60
f 91/60 84/49 92/61
f 84/47 85/50 92/61
f 92/61 85/51 93/62
f 85/50 86/52 93/62
f 93/62 86/52 94/63
f 86/52 87/54 94/63
f 94/63 87/55 95/64
f 87/54 88/56 95/64
f 95/64 88/56 96/65
f 88/56 81/48 96/65
f 96/65 81/42 89/58
f 89/58 90/59 97/66
f 97/67 90/59 98/68
f 90/59 91/60 98/68
f 98/68 91/60 99/69
f 91/60 92/61 99/70
f 99/69 92/61 100/71
f 92/61 93/62 100/71
f 100/71 93/62 101/72
f 93/62 94/63 101/73
f 101/72 94/63 102/74
f 94/63 95/64 102/74
f 102/74 95/64 103/75
f 95/64 96/65 103/76
f 103/75 96/65 104/77
f 96/65 89/58 104/77
f 104/77 89/58 97/67
f 97/67 98/78 105/79
f 105/79 98/68 106/80
f 98/68 99/70 106/81
f 106/80 99/69 107/82
f 99/69 100/83 107/82
f 107/82 100/71 108/84
f 100/71 101/73 108/85
f 108/84 101/72 109/86
f 101/72 102/87 109/86
f 109/86 102/74 110/88
f 102/74 103/76 110/89
f 110/88 103/75 111/90
f 103/75 104/91 111/90
f 111/90 104/77 112/92
f 104/77 97/66 112/93
f 112/92 97/67 105/79
f 105/79 106/80 113/94
f 113/94 106/80 114/95
f 106/81 107/82 114/95
f 114/95 107/96 115/97
f 107/82 108/84 115/97
f 115/97 108/84 116/98
f 108/85 109/86 116/98
f 116/98 109/99 117/100
f 109/86 110/88 117/100
f 117/100 110/88 118/101
f 110/89 111/90 118/101
f 118/101 111/102 119/103
f 111/90 112/92 119/103
f 119/103 112/92 120/104
f 112/93 105/79 120/104
f 120/104 105/105 113/94
f 66/19 65/18 121/106
f 67/23 66/19 121/106
f 68/26 67/23 121/106
f 69/29 68/26 121/106
f 70/32 69/29 121/106
f 71/35 70/32 121/106
f 72/38 71/35 121/106
f 65/18 72/38 121/106
f 113/94 114/95 122/107
f 114/95 115/97 122/107
f 115/97 116/98 122/107
f 116/98 117/100 122/107
f 117/100 118/101 122/107
f 118/101 119/103 122/107
f 119/103 120/104 122/107
f 120/104 113/94 122/107
